{
    "asset" : {
        "generator" : "Khronos glTF Blender I/O v1.8.19",
        "version" : "2.0"
    },
    "scene" : 0,
    "scenes" : [
        {
            "name" : "Scene",
            "nodes" : [
                0,
                1
            ]
        }
    ],
    "nodes" : [
        {
            "mesh" : 0,
            "name" : "Aset_misc__S_tmrjfjwhw_LOD2",
            "rotation" : [
                0.2922418713569641,
                0.6438902616500854,
                -0.6438903212547302,
                0.2922418415546417
            ],
            "scale" : [
                0.02124224230647087,
                0.02124224230647087,
                0.02124224230647087
            ],
            "translation" : [
                0.003938428126275539,
                -5.506930028786883e-05,
                0.0028312024660408497
            ]
        },
        {
            "mesh" : 1,
            "name" : "Cylinder.001",
            "rotation" : [
                -0.5769875049591064,
                0.6875452995300293,
                -0.40876084566116333,
                0.16517110168933868
            ],
            "scale" : [
                0.02008723095059395,
                0.01431666873395443,
                0.020087232813239098
            ],
            "translation" : [
                -0.0005751992575824261,
                0.0001530378358438611,
                -0.0027123712934553623
            ]
        }
    ],
    "materials" : [
        {
            "doubleSided" : true,
            "name" : "Material.001",
            "pbrMetallicRoughness" : {
                "baseColorTexture" : {
                    "index" : 0
                },
                "metallicFactor" : 0,
                "metallicRoughnessTexture" : {
                    "index" : 1
                }
            }
        },
        {
            "doubleSided" : true,
            "name" : "Material.002",
            "normalTexture" : {
                "index" : 2
            },
            "pbrMetallicRoughness" : {
                "baseColorTexture" : {
                    "index" : 3
                },
                "metallicFactor" : 0,
                "metallicRoughnessTexture" : {
                    "index" : 4
                }
            }
        }
    ],
    "meshes" : [
        {
            "name" : "Aset_misc__S_tmrjfjwhw_LOD2",
            "primitives" : [
                {
                    "attributes" : {
                        "POSITION" : 0,
                        "NORMAL" : 1,
                        "TEXCOORD_0" : 2
                    },
                    "indices" : 3,
                    "material" : 0
                }
            ]
        },
        {
            "name" : "Cylinder.001",
            "primitives" : [
                {
                    "attributes" : {
                        "POSITION" : 4,
                        "NORMAL" : 5,
                        "TEXCOORD_0" : 6
                    },
                    "indices" : 7,
                    "material" : 1
                }
            ]
        }
    ],
    "textures" : [
        {
            "sampler" : 0,
            "source" : 0
        },
        {
            "sampler" : 0,
            "source" : 1
        },
        {
            "sampler" : 0,
            "source" : 2
        },
        {
            "sampler" : 0,
            "source" : 2
        },
        {
            "sampler" : 0,
            "source" : 3
        }
    ],
    "images" : [
        {
            "bufferView" : 4,
            "mimeType" : "image/jpeg",
            "name" : "Image_0"
        },
        {
            "bufferView" : 5,
            "mimeType" : "image/png",
            "name" : "Image_1"
        },
        {
            "bufferView" : 10,
            "mimeType" : "image/png",
            "name" : "Image_2"
        },
        {
            "bufferView" : 11,
            "mimeType" : "image/png",
            "name" : "Image_3"
        }
    ],
    "accessors" : [
        {
            "bufferView" : 0,
            "componentType" : 5126,
            "count" : 659,
            "max" : [
                6.00907039642334,
                0.9161762595176697,
                0.9466580748558044
            ],
            "min" : [
                -5.99365234375,
                -0.9169055819511414,
                -0.9375174045562744
            ],
            "type" : "VEC3"
        },
        {
            "bufferView" : 1,
            "componentType" : 5126,
            "count" : 659,
            "type" : "VEC3"
        },
        {
            "bufferView" : 2,
            "componentType" : 5126,
            "count" : 659,
            "type" : "VEC2"
        },
        {
            "bufferView" : 3,
            "componentType" : 5123,
            "count" : 2868,
            "type" : "SCALAR"
        },
        {
            "bufferView" : 6,
            "componentType" : 5126,
            "count" : 134,
            "max" : [
                1.0000001192092896,
                4.5891218185424805,
                1
            ],
            "min" : [
                -0.9999998211860657,
                -1.0000001192092896,
                -0.9999998807907104
            ],
            "type" : "VEC3"
        },
        {
            "bufferView" : 7,
            "componentType" : 5126,
            "count" : 134,
            "type" : "VEC3"
        },
        {
            "bufferView" : 8,
            "componentType" : 5126,
            "count" : 134,
            "type" : "VEC2"
        },
        {
            "bufferView" : 9,
            "componentType" : 5123,
            "count" : 384,
            "type" : "SCALAR"
        }
    ],
    "bufferViews" : [
        {
            "buffer" : 0,
            "byteLength" : 7908,
            "byteOffset" : 0
        },
        {
            "buffer" : 0,
            "byteLength" : 7908,
            "byteOffset" : 7908
        },
        {
            "buffer" : 0,
            "byteLength" : 5272,
            "byteOffset" : 15816
        },
        {
            "buffer" : 0,
            "byteLength" : 5736,
            "byteOffset" : 21088
        },
        {
            "buffer" : 0,
            "byteLength" : 681218,
            "byteOffset" : 26824
        },
        {
            "buffer" : 0,
            "byteLength" : 579405,
            "byteOffset" : 708044
        },
        {
            "buffer" : 0,
            "byteLength" : 1608,
            "byteOffset" : 1287452
        },
        {
            "buffer" : 0,
            "byteLength" : 1608,
            "byteOffset" : 1289060
        },
        {
            "buffer" : 0,
            "byteLength" : 1072,
            "byteOffset" : 1290668
        },
        {
            "buffer" : 0,
            "byteLength" : 768,
            "byteOffset" : 1291740
        },
        {
            "buffer" : 0,
            "byteLength" : 785941,
            "byteOffset" : 1292508
        },
        {
            "buffer" : 0,
            "byteLength" : 303497,
            "byteOffset" : 2078452
        }
    ],
    "samplers" : [
        {
            "magFilter" : 9729,
            "minFilter" : 9987
        }
    ],
    "buffers" : [
        {
            "byteLength" : 2381952,
            "uri" : "data:application/octet-stream;base64,"
        }
    ]
}
